<?xml version="1.0" encoding="utf-8"?>
<!-- Generator: Adobe Illustrator 26.3.1, SVG Export Plug-In . SVG Version: 6.00 Build 0)  -->
<svg version="1.1" id="图层_1" xmlns="http://www.w3.org/2000/svg" xmlns:xlink="http://www.w3.org/1999/xlink" x="0px" y="0px"
	 viewBox="0 0 618 204.1" style="enable-background:new 0 0 618 204.1;" xml:space="preserve">
<style type="text/css">
	.st0{fill:#D31B18;}
	.st1{fill:#2C211A;}
</style>
<polygon class="st0" points="231.2,110.7 262.1,14.7 226,14.7 207.7,71.6 207.5,69.4 207.4,67.3 207.1,65.3 206.8,63.2 206.4,61.2 
	205.9,59.1 205.4,57.1 204.8,55.1 204.1,53.1 203.5,51.2 202.6,49.2 201.8,47.3 200.8,45.5 199.8,43.6 198.7,41.7 197.6,39.9 
	195.2,36.7 192.6,33.7 190,30.9 186.9,28.2 183.9,25.7 180.7,23.5 177.2,21.5 173.6,19.6 169.9,17.9 166.1,16.4 162.2,15.2 
	158.2,14.1 154,13.3 149.7,12.5 145.4,12.1 141,11.9 136.4,11.7 131.8,11.9 127.2,12.2 122.5,12.7 117.9,13.4 113.2,14.3 
	108.4,15.4 103.7,16.8 98.9,18.3 94.1,20 89.4,22 84.6,24.2 79.8,26.5 75.2,29.1 70.6,31.8 66,34.8 61.5,37.9 57.3,41.1 53.2,44.5 
	49.2,48 45.4,51.5 41.8,55.2 38.4,59 35.3,62.9 32.2,66.9 29.3,70.8 26.8,74.9 24.3,78.9 22.1,83.1 20.1,87.3 18.2,91.5 16.6,95.7 
	15.1,99.8 13.9,104.1 13,108.3 12.3,112.5 11.7,116.7 11.5,120.9 11.3,124.9 11.5,128.9 11.9,132.9 12.6,136.8 13.3,140.8 
	14.4,144.5 15.9,148.1 17.5,151.8 19.4,155.3 21.5,158.7 23.7,161.8 26.2,164.7 28.8,167.5 31.6,170 34.5,172.4 37.5,174.6 
	40.7,176.6 44.1,178.5 47.6,180.2 51.1,181.7 54.9,183 58.7,184.1 62.6,185 66.7,185.8 70.7,186.5 74.9,186.8 79.2,187 83.4,187 
	87.8,186.9 92.3,186.6 96.7,186.1 101.2,185.3 105.7,184.6 110.3,183.5 114.8,182.2 119.3,180.8 123.9,179.2 128.5,177.3 
	132.9,175.4 137.4,173.2 141.9,170.8 146.4,168.3 146.4,161.1 142.6,163.1 138.9,164.9 135.1,166.6 131.3,168.1 127.4,169.5 
	123.6,170.7 119.8,171.8 116,172.7 112.1,173.5 108.4,174.1 104.7,174.6 100.9,174.9 97.2,175.1 93.6,175.1 89.9,175 86.4,174.6 
	82.9,174.2 79.5,173.6 76.2,172.9 72.9,172.1 69.7,170.9 66.6,169.8 63.6,168.5 60.6,167 57.8,165.4 55.2,163.7 52.5,161.8 
	50,159.6 47.7,157.4 45.5,155.1 43.4,152.6 41.5,149.9 39.6,147 38,143.9 36.6,140.8 35.4,137.5 34.4,134.2 33.6,130.8 33,127.3 
	32.7,123.9 32.5,120.3 32.5,116.7 32.7,113.1 33.1,109.4 33.8,105.9 34.6,102.2 35.6,98.5 36.7,94.8 38.2,91.2 39.6,87.5 41.4,83.9 
	43.3,80.4 45.3,76.8 47.7,73.3 50,69.9 52.6,66.5 55.4,63.2 58.3,59.9 61.4,56.7 64.7,53.5 68,50.5 71.6,47.6 75.3,44.8 79.1,42.2 
	83,39.6 87,37.2 91,35 95.2,33 99.2,31.2 103.3,29.5 107.5,28.1 111.6,26.7 115.7,25.6 119.9,24.6 123.9,23.9 128,23.3 132.1,22.8 
	136.1,22.6 140,22.6 143.9,22.7 147.7,22.9 151.5,23.4 155.2,24 158.8,24.8 162.4,25.8 165.7,26.9 169.1,28.3 172.3,29.7 
	175.4,31.5 178.3,33.2 181.1,35.2 183.9,37.5 186.4,39.8 188.8,42.2 191.1,44.9 193.1,47.9 194.8,50.4 196.2,53 197.5,55.6 
	198.6,58.4 199.5,61 200.2,63.8 200.8,66.8 201.3,69.7 201.7,72.7 201.8,75.7 201.9,78.8 201.8,81.9 201.6,85.2 201.2,88.4 
	200.8,91.7 200.2,95 199.5,98.6 198.4,102.2 197.3,105.7 196.1,109 194.8,112.3 193.2,115.5 191.5,118.6 189.7,121.8 187.7,124.8 
	185.6,127.8 183.4,130.7 180.9,133.6 178.2,136.4 175.4,139.2 172.5,141.9 169.4,144.5 170.8,144.9 172.3,145.1 173.7,145.3 
	175.3,145.6 177,145.8 178.7,146 180.4,146 182,146 184.5,146 186.8,145.9 189.3,145.7 191.6,145.2 193.3,144.9 195.1,144.5 
	196.8,144.1 198.4,143.5 200,143 201.7,142.3 203.2,141.7 204.8,140.9 206.4,140.1 207.8,139.3 209.3,138.4 210.8,137.4 
	212.2,136.5 213.5,135.5 214.9,134.4 216.2,133.3 217.4,132.1 218.7,130.9 219.9,129.7 221,128.5 222.1,127.1 223.3,125.8 
	224.3,124.4 225.1,123 226.2,121.5 227,120 227.8,118.6 228.6,117.1 229.3,115.5 230,113.9 230.6,112.3 "/>
<polygon class="st1" points="385.7,146 386,146 386.1,146 386.5,146 389.1,146 391.8,145.8 394.4,145.5 397,144.9 399.5,144.3 
	402,143.7 404.5,142.7 406.9,141.9 409.3,140.8 411.5,139.6 413.7,138.3 416,137 418,135.5 420,134 422,132.3 423.8,130.5 
	419.7,143.5 455.4,143.5 486.4,48.3 450.1,48.3 433.4,100.1 433.2,100.7 432.5,103 431.8,104.6 431.1,106.2 430.2,107.7 
	429.1,109.1 428,110.5 426.8,111.7 425.6,112.9 424.2,113.9 422.8,115 421.2,115.8 419.7,116.5 418,117.2 416.3,117.7 414.6,118.2 
	412.8,118.4 410.9,118.6 410.1,118.5 409.4,118.3 408.6,118.1 407.8,117.7 407.1,117.4 406.5,116.9 405.9,116.5 405.3,116 
	404.8,115.2 404.3,114.7 404,113.9 403.7,113.2 403.3,112.5 403.2,111.6 403.1,110.8 403,109.9 403.2,108.5 403.6,107 422.3,48.3 
	386.2,48.3 364.7,115.2 364.3,116.3 364.1,117.4 363.9,118.4 363.8,119.5 363.4,120.9 363.2,122.2 363,123.4 363,124.8 363.1,126.9 
	363.4,128.9 363.9,130.9 364.5,132.8 365.3,134.6 366.3,136.4 367.6,138 368.8,139.4 370.2,140.8 371.8,142 373.5,143.1 375.3,144 
	377.2,144.7 379.1,145.2 381.1,145.7 383.2,145.8 384.1,146 385.2,146 385.4,146 "/>
<polygon class="st1" points="338.7,48.3 338.5,48.3 338.3,48.3 335.5,48.4 332.8,48.6 330.2,49 327.6,49.4 325,50 322.5,50.8 
	320.1,51.5 317.6,52.5 315.3,53.7 313,54.8 310.8,56.1 308.7,57.5 306.5,59 304.6,60.6 302.7,62.4 300.9,64.2 316.5,14.4 
	280.4,14.4 238.6,146 274.7,146 291,94.3 291.2,94 291.2,93.8 292,91.3 292.7,89.8 293.6,88.2 294.5,86.8 295.5,85.3 296.5,83.9 
	297.7,82.7 299,81.6 300.4,80.5 301.7,79.5 303.3,78.6 304.8,77.9 306.4,77.3 308.1,76.7 309.9,76.2 311.7,75.9 313.5,75.8 
	314.4,75.9 315.1,76.1 315.9,76.4 316.7,76.7 317.4,77.1 318,77.6 318.7,78 319.3,78.6 319.8,79.3 320.3,79.8 320.7,80.6 
	321.1,81.3 321.3,82 321.5,82.9 321.6,83.6 321.6,84.4 321.5,86 321.2,87.4 302.2,146 338.5,146 360,79.3 360.3,78.3 360.6,77.3 
	360.8,76.1 361,75 361.3,73.8 361.5,72.4 361.6,71 361.8,69.7 361.6,67.5 361.3,65.4 360.8,63.5 360.2,61.6 359.3,59.8 358.3,58.2 
	357,56.5 355.7,55 354.4,53.7 352.8,52.4 351.1,51.4 349.4,50.4 347.4,49.8 345.5,49.2 343.5,48.7 341.4,48.5 340.4,48.5 
	339.5,48.3 339.1,48.3 "/>
<path class="st1" d="M375.5,178.2v-4.1h10.3v8.7v1v3.4H382v-1.5l-1.4,0.7L379,187l-0.8,0.2l-0.9,0.1l-0.8,0.1h-0.8l-1.9-0.1
	l-1.7-0.2l-0.8-0.2l-0.8-0.3l-0.7-0.3l-0.7-0.3l-0.7-0.4l-0.7-0.5l-0.6-0.4l-0.5-0.6l-0.4-0.7l-0.5-0.5l-0.4-0.7l-0.3-0.7l-0.7-1.5
	l-0.5-1.7l-0.2-1.6l-0.1-1.8l0.1-1.8l0.4-1.8l0.4-1.6l0.7-1.6l0.4-0.7l0.4-0.7l0.5-0.6l0.6-0.6l0.6-0.6l0.7-0.6l0.7-0.4l0.8-0.3
	l1.1-0.5l1.4-0.5l1.5-0.2h1.6h1.1l1,0.1l0.9,0.1l0.9,0.2l0.9,0.2l0.8,0.3l0.7,0.5l0.7,0.4l0.6,0.4l0.5,0.6l0.5,0.5l0.4,0.7l0.3,0.7
	l0.3,0.7l0.2,0.8l0.2,0.9l-4,0.8l-0.4-0.9l-0.4-0.8l-0.5-0.6l-0.7-0.6l-0.9-0.4l-0.9-0.3l-1-0.2h-1.3h-0.8l-0.7,0.1l-0.8,0.2
	l-0.7,0.2l-0.7,0.3l-0.6,0.3l-0.6,0.4l-0.5,0.5l-0.6,0.7l-0.3,0.6l-0.3,0.7l-0.3,0.8l-0.2,0.9l-0.1,0.8l-0.1,0.9v1v0.9l0.1,0.9
	l0.1,0.8l0.2,0.9l0.3,0.8l0.3,0.7l0.5,0.7l0.4,0.7l0.5,0.4l0.6,0.4l0.6,0.3l0.7,0.4l0.7,0.2l0.8,0.2l0.7,0.1h0.8l1.3-0.1l1-0.1
	l0.9-0.1l0.9-0.2l0.7-0.4l0.6-0.3l0.6-0.4l0.6-0.4v-3H375.5z M335.8,175.1v-0.8l0.1-0.9l0.2-0.8l0.1-0.9l0.7-1.8l0.8-1.7l0.4-0.8
	l0.5-0.8l0.5-0.7l0.7-0.7l0.7-0.6l0.7-0.5l0.8-0.5l0.6-0.4l1.3-0.3l1.2-0.3l1.2-0.2h1.5h1.3l1.2,0.2l1.2,0.3l1.1,0.4l1,0.5l1,0.7
	l0.9,0.7l0.9,0.9l0.7,0.9l0.7,0.9l0.5,1l0.6,1.1l0.3,1.3l0.2,1.2l0.2,1.2v1.3v1.3l-0.2,1.2l-0.2,1.2l-0.3,1.1l-0.6,1.1l-0.5,1
	l-0.6,1l-0.8,0.9l-0.8,0.8l-1,0.7l-0.9,0.7l-1.1,0.6l-1.1,0.3l-1.2,0.3l-1.2,0.2h-1.3h-1.2l-1.2-0.2l-1.2-0.3l-1.1-0.3l-1.1-0.6
	l-1-0.5l-0.9-0.8l-0.8-0.8l-0.8-0.9l-0.7-0.9l-0.6-1l-0.4-1.1l-0.3-1.1l-0.3-1.2l-0.1-1.3L335.8,175.1z M340.7,175l0.1,1.6l0.3,1.4
	l0.2,0.8l0.3,0.7l0.3,0.7l0.4,0.5l0.5,0.6l0.6,0.6l0.6,0.4l0.7,0.4l0.7,0.3l0.7,0.2l0.9,0.1l0.8,0.1l0.9-0.1l0.8-0.1l0.8-0.2
	l0.7-0.3l0.7-0.4l0.6-0.4l0.4-0.6l0.6-0.6l0.3-0.6l0.3-0.7l0.3-0.7l0.2-0.7l0.3-1.6l0.1-1.5l-0.1-1.6l-0.3-1.4l-0.2-0.8l-0.3-0.7
	l-0.3-0.5l-0.3-0.7l-0.4-0.5l-0.6-0.5l-0.6-0.4l-0.7-0.3l-0.7-0.3l-0.8-0.2l-0.8-0.1l-0.9-0.1l-0.9,0.1l-0.8,0.1l-0.8,0.2l-0.7,0.3
	l-0.6,0.3l-0.7,0.4l-0.4,0.6l-0.5,0.6l-0.4,0.6l-0.3,0.7l-0.3,0.6l-0.2,0.7l-0.3,1.5L340.7,175z M266.7,187.1v-24.4h4.2l11.2,16.3
	v-16.3h4.5v24.4h-4.4l-11-15.8v15.8H266.7z M240.6,187.1v-24.4h4.8v9.6h10.8v-9.6h4.7v24.4h-4.7v-10.6h-10.8v10.6H240.6z
	 M192.9,187.1v-24.4h17.6v4.1h-12.7v5.4h11.8v4.1h-11.8v6.6h13.2v4.1H192.9z M395.6,187.1v-10.3l-8.6-14.1h5.6l5.5,9.6l5.5-9.6h5.5
	l-8.6,14.2v10.2H395.6z M318.9,187.1V163h4.8v20h10.7v4.1H318.9z M291.2,175.1v-0.8l0.1-0.9l0.1-0.8l0.2-0.9l0.6-1.8l0.8-1.7
	l0.6-0.8l0.4-0.8l0.5-0.7l0.7-0.7l0.6-0.6l0.8-0.5l0.7-0.5l0.8-0.4l1.1-0.3l1.2-0.3l1.4-0.2h1.5h1.3l1.2,0.2l1.2,0.3l1.1,0.4l1,0.5
	l1,0.7l0.9,0.7l0.9,0.9l0.7,0.9l0.6,0.9l0.6,1l0.4,1.1l0.5,1.3l0.2,1.2l0.2,1.2v1.3v1.3l-0.2,1.2l-0.2,1.2l-0.5,1.1l-0.4,1.1l-0.6,1
	l-0.6,1l-0.7,0.9l-0.9,0.8l-0.9,0.7l-1,0.7l-1,0.6l-1.1,0.3l-1.2,0.3l-1.2,0.2h-1.3H302l-1.4-0.2l-1.1-0.3l-1.1-0.3l-1.1-0.6l-1-0.5
	l-0.9-0.8l-0.8-0.8l-0.8-0.9l-0.6-0.9l-0.6-1l-0.4-1.1l-0.5-1.1l-0.2-1.2l-0.2-1.3V175.1z M296.1,175l0.1,1.6l0.3,1.4l0.2,0.8
	l0.3,0.7l0.3,0.7l0.5,0.5l0.4,0.6l0.6,0.6l0.6,0.4l0.5,0.4l0.8,0.3l0.7,0.2l0.9,0.1l0.8,0.1l0.9-0.1l0.8-0.1l0.8-0.2l0.6-0.3
	l0.7-0.4l0.6-0.4l0.4-0.6l0.4-0.6l0.4-0.6l0.3-0.7l0.3-0.7l0.2-0.7l0.3-1.6l0.1-1.5l-0.1-1.6l-0.3-1.4l-0.2-0.8l-0.3-0.7l-0.3-0.5
	l-0.3-0.7l-0.6-0.5l-0.4-0.5l-0.6-0.4l-0.7-0.3l-0.6-0.3l-0.8-0.2l-0.8-0.1l-0.9-0.1l-0.9,0.1l-0.8,0.1l-0.8,0.2l-0.7,0.3l-0.7,0.3
	l-0.6,0.4l-0.4,0.6l-0.6,0.6l-0.3,0.6l-0.3,0.7l-0.3,0.6l-0.2,0.7l-0.3,1.5L296.1,175z M231,178.2l4.9,1.5l-0.2,1l-0.4,0.9l-0.4,0.8
	l-0.5,0.8l-0.6,0.8l-0.5,0.5l-0.6,0.6l-0.7,0.6l-0.7,0.4l-0.8,0.4l-0.8,0.4l-0.8,0.2l-0.9,0.2l-0.9,0.1l-0.9,0.1h-1H224l-1.1-0.1
	l-1.1-0.3l-1.1-0.3l-1-0.4l-1-0.6l-0.9-0.7l-0.8-0.7l-0.8-0.9l-0.7-1l-0.6-1.1l-0.6-1.1l-0.3-1.2l-0.2-1.3l-0.2-1.2V175l0.1-1.3
	l0.1-1.3l0.2-1.2l0.5-1.2l0.4-1.1l0.6-1.1l0.7-1l0.8-0.9l0.9-0.8l0.9-0.7l1-0.6l1-0.6l1.2-0.3l1.2-0.2l1.2-0.2h1.2h1.2l1,0.1
	l1.1,0.2l0.9,0.3l1,0.3l0.8,0.5l0.9,0.6l0.7,0.6l0.9,0.9l0.7,1l0.6,1.2l0.6,1.3l-5.1,1.2l-0.2-0.9l-0.4-0.8l-0.6-0.8l-0.7-0.6
	l-0.8-0.4l-0.8-0.3l-0.9-0.2l-1-0.1l-0.7,0.1H224l-0.7,0.2l-0.6,0.2l-0.6,0.2l-0.6,0.3l-0.4,0.4l-0.5,0.6l-0.5,0.7l-0.4,0.6
	l-0.3,0.8l-0.3,0.9l-0.2,0.8l-0.2,0.9l-0.1,0.9v0.9v0.9l0.1,0.9l0.2,0.8l0.2,0.9l0.3,0.8l0.3,0.7l0.4,0.8l0.5,0.6l0.5,0.4l0.4,0.4
	l0.6,0.4l0.6,0.2l0.6,0.2l0.6,0.2l0.7,0.1h0.6l1-0.1l0.9-0.2l0.9-0.3l0.8-0.6l0.7-0.7l0.6-0.9l0.4-1L231,178.2z M176.3,187.1v-20.2
	h-6.9v-4.1h18.8v4.1h-7v20.2H176.3z"/>
<path class="st1" d="M130.5,99.3l-2,0.7l-2.1,0.5l-2,0.7l-2.1,0.6l-2.1,0.4l-2.1,0.6l-2.1,0.5l-2.1,0.5l-1.3,0.3l-1.1,0.3l-4.6,1.3
	l-3.8,1.2l-1.6,0.7l-1.5,0.6l-1.2,0.7l-1,0.5l-0.9,0.7l-0.8,0.7l-0.8,0.8l-0.8,0.8l-0.6,0.9l-0.6,0.8l-0.6,0.9l-0.3,0.9l-0.3,1.1
	l-0.2,1v0.9l0.1,1l0.2,0.9l0.3,0.8l0.4,0.8l0.4,0.7l0.8,0.8l0.7,0.7l0.8,0.4l0.9,0.3l1,0.2l1.1,0.2l1.3,0.1h1.3l2.5-0.2l2.6-0.4
	l1.2-0.2l1.2-0.3l1.2-0.3l1.2-0.5l1.1-0.4l1.1-0.5l1.5-0.8l1.5-0.8l1.4-0.8l1.1-0.9l1.1-1l1.1-0.9l0.9-1l0.9-1l0.9-1l0.9-1.2
	l0.8-1.2l0.8-1.4l0.7-1.4l0.7-1.4l0.7-1.5l0.6-1.6L130.5,99.3z M111.3,87.9l3.5-0.7l3-0.7l2.4-0.7l1.9-0.4l3.3-0.8l3.4-0.9l3.5-1
	l3.5-1.2l0.4-1l0.5-1l0.3-1l0.2-1.1l0.1-1.1l0.1-1.1l-0.1-1.1l-0.1-1.1l-1.1-0.5l-1.3-0.5l-1.2-0.6l-1.2-0.4l-1.2-0.5l-1.1-0.2
	l-1.1-0.3l-1.1-0.1l-1.9-0.1h-2l-1.9,0.2l-1.8,0.3l-1.8,0.5l-1.8,0.5l-1.7,0.7l-1.5,0.8l-1.1,0.8l-1.1,0.7l-1.4,1.2l-1.6,1.5
	l-1.5,1.8l-1.4,2l-34.2-3.7l1.4-2.1l1.3-2l1.3-1.8l1.3-1.7l1.4-1.6l1.2-1.4l1.3-1.4l1.5-1.2l1.3-1.3l1.6-1.2l1.5-1.2l1.6-1.1
	l1.7-1.1l1.7-1.1l1.7-1l1.8-0.9l1.8-1l1.9-0.8l1.9-0.8l1.9-0.7l2-0.7l2.1-0.7l2.2-0.4l2.1-0.4l2.3-0.5l2.3-0.2l2.4-0.3l2.4-0.2
	l2.4-0.1l2.4-0.1h2.5h2.3h3.3l3.3,0.1l3.1,0.1l3,0.2l2.9,0.2l2.8,0.3l2.5,0.3l2.2,0.4l2.3,0.4l2.2,0.6l2.1,0.8l2,0.9l1.9,1.1
	l1.8,1.4l1.7,1.4l1.6,1.7l1.5,1.7l1.2,1.8l1.1,2l0.9,2l0.8,2.1l0.4,2.3l0.4,2.3l0.1,2.3v1.2l-0.1,1.9l-0.1,1.1l-0.2,1.1l-0.2,1
	l-0.3,1.1l-1.2,4l-1.6,4.7l-1.7,5.4l-2,6.1l-2.2,6.9l-2.6,7.9l-2.8,8.8l-3.1,10l-0.3,1.1l-0.1,1.1l-0.1,1.1l0.1,1.1l0.1,1l0.2,1
	l0.2,0.9l0.3,0.8h-3.2h-7.4h-17.8h-6.5v-0.2l-0.4-0.8l-0.3-0.8L121,141l-0.2-0.8l-0.3-1.8v-1.8v-1.1l0.1-1l0.2-1l0.3-1.1l-2.5,2
	l-2.5,1.7l-2.4,1.5l-2.5,1.3l-1.7,0.9l-1.6,0.8l-1.4,0.7l-1.6,0.5l-2.6,1l-2.8,0.9l-2.9,0.8l-2.9,0.6l-3,0.6l-3.1,0.4l-3,0.1h-3.2
	h-2.3l-2.2-0.1l-2.1-0.2l-1.9-0.2l-1.7-0.3l-1.7-0.3l-1.5-0.4l-1.3-0.6l-1.2-0.5l-1.2-0.7l-1-0.6l-1-0.8l-1-0.8l-0.9-0.9l-0.8-0.9
	l-0.8-0.9l-0.7-1l-0.7-0.9l-0.6-1l-0.6-1l-0.5-1.1l-0.3-1.1l-0.3-1.1l-0.3-1.1l-0.2-1.2l-0.1-1.2l-0.1-1.2v-1.2l0.1-1.3l0.2-1.4
	l0.2-1.3l0.3-1.4l0.4-1.5l0.4-1.5l0.6-1.3l0.5-1.3l0.7-1.2l0.6-1.1l0.8-1.1l0.7-1.1l1.7-2l1.8-1.9l1.9-1.8l2-1.8l2.4-1.7l2.7-1.4
	l2.9-1.5l3.1-1.3l3.5-1.2l3.8-1.1l4-1l4.4-0.9l2.4-0.4l2.5-0.4l2.2-0.4l2.2-0.4l2.1-0.4l2-0.3l1.8-0.3L111.3,87.9z"/>
<path class="st1" d="M556.7,99.3l-2,0.7l-2.1,0.5l-2.2,0.7l-2,0.6l-2.1,0.4l-2.1,0.6l-2.1,0.5l-2.1,0.5l-1.3,0.3l-1.1,0.3l-4.7,1.3
	l-3.7,1.2l-1.7,0.7l-1.4,0.6l-1.2,0.7l-1,0.5l-0.9,0.7l-0.9,0.7l-0.8,0.8l-0.7,0.8l-0.7,0.9l-0.6,0.8l-0.4,0.9l-0.3,0.9l-0.3,1.1
	l-0.2,1v0.9l0.1,1l0.2,0.9l0.3,0.8l0.4,0.8l0.5,0.7l0.7,0.8l0.8,0.7l0.8,0.6l0.9,0.3l1,0.3l1.1,0.2h1.2h1.5l2.5-0.2l2.3-0.4l2.4-0.6
	l2.1-0.7l2.2-0.9l2-1l1.9-1.2l1.9-1.2l1.7-1.4l1.7-1.6l1.5-1.7l1.3-1.8l1.2-1.9l1.1-2l0.9-2.1l0.8-2.1L556.7,99.3z M537.5,87.9
	l3.5-0.7l2.9-0.7l2.4-0.7l2-0.4l3.3-0.8l3.4-0.9l3.4-1l3.6-1.2l0.4-1l0.4-1l0.3-1l0.2-1.1l0.1-1.1V75v-1.1l-0.1-1.1l-1.1-0.6
	l-1.2-0.5l-1.2-0.4l-1.2-0.4l-2.5-0.7l-2.1-0.4l-2-0.1h-1.9l-1.9,0.2l-1.9,0.3l-1.8,0.5l-1.7,0.5l-1.7,0.7l-1.6,0.8l-1.1,0.8l-1,0.7
	l-1.6,1.2l-1.4,1.5l-1.4,1.8l-1.6,2l-34.1-3.7l1.4-2.1l1.3-2l1.2-1.8l1.3-1.7l1.3-1.6l1.4-1.5l1.4-1.3l1.3-1.2l1.4-1.4l1.6-1.2
	l1.5-1.2l1.5-1.1l1.7-1.1l1.7-1l1.7-1l1.8-1l1.8-0.9l1.8-0.8l2-0.8l1.9-0.7l2-0.7l2.1-0.5l2-0.6l2.2-0.4l2.3-0.5l2.3-0.3l2.3-0.2
	l2.4-0.2l2.5-0.1l2.3-0.1h2.5h2.3h3.4l3.2,0.1l3.1,0.1l3,0.2l2.9,0.2l2.7,0.3l2.6,0.3l2.4,0.4l2.3,0.4l2.1,0.6l2.1,0.8l2.1,0.9
	l1.9,1.1l1.8,1.4l1.7,1.4l1.6,1.7l1.5,1.7l1.2,1.8l1.1,2l0.9,2l0.7,2.1l0.6,2.3l0.3,2.3L601,74l-0.1,1.2l-0.1,1.9l-0.4,2.2l-0.5,2.2
	l-1.4,4l-1.4,4.7l-1.7,5.4l-1.9,6.1l-2.2,6.9l-2.5,7.9l-2.8,8.8l-3.2,10l-0.2,1l-0.1,1l-0.1,1.1v1.1l0.2,1.1l0.1,1l0.4,1l0.3,0.8
	h-3.2h-7.4h-17.9h-6.4v-0.2l-0.5-0.8l-0.3-0.8l-0.4-0.8l-0.2-0.8l-0.3-1.8l-0.1-1.8l0.1-1.1l0.1-1l0.2-1l0.3-1.1l-2.5,2l-2.5,1.7
	l-2.6,1.5l-2.3,1.3l-1.7,0.9l-1.6,0.8l-1.4,0.7l-1.6,0.5l-2.7,1l-2.8,0.9l-2.8,0.8l-3,0.6l-3,0.6l-3,0.4l-3.1,0.1h-3h-2.5l-2.1-0.1
	l-2.1-0.2l-1.9-0.2l-1.8-0.3l-1.6-0.3l-1.5-0.4l-1.3-0.6l-1.4-0.5l-1.1-0.7l-1.1-0.6l-1-0.8l-0.9-0.8l-0.9-0.9l-0.8-0.9l-0.9-0.9
	l-0.7-1l-0.6-0.9l-0.5-1l-0.6-1l-0.4-1.1l-0.5-1.1l-0.3-1.1l-0.2-1.1l-0.2-1.2l-0.1-1.2l-0.1-1.2v-1.2l0.1-1.3l0.1-1.4l0.3-1.3
	l0.2-1.4l0.5-1.5l0.6-1.5l0.6-1.3l0.6-1.3l0.5-1.2l0.7-1.1l0.7-1.1l0.8-1.1l1.7-2l1.7-1.9l1.9-1.8l2.1-1.8l2.4-1.7l2.5-1.4l2.9-1.5
	l3.2-1.3l3.5-1.2l3.7-1.1l4.1-1l4.4-0.9l2.4-0.4l2.3-0.4l2.3-0.4l2.2-0.4l2-0.4l2-0.3l1.9-0.3L537.5,87.9z"/>
</svg>
