<?xml version="1.0" encoding="utf-8"?>
<!-- Generator: Adobe Illustrator 19.2.1, SVG Export Plug-In . SVG Version: 6.00 Build 0)  -->
<svg version="1.1" id="layer" xmlns="http://www.w3.org/2000/svg" xmlns:xlink="http://www.w3.org/1999/xlink" x="0px" y="0px"
	 viewBox="0 0 652 652" style="enable-background:new 0 0 652 652;" xml:space="preserve">
<style type="text/css">
	.st0{fill-rule:evenodd;clip-rule:evenodd;}
</style>
<g>
	<path class="st0" d="M341.7,347.1L341.7,347.1 M416.4,338.4v0.2c0,1.9-1.6,3.4-3.5,3.4v0h-19.1c-1.9,0-3.5-1.5-3.5-3.4
		c0-0.1,0-0.1,0-0.2c1.9-8.9,4.6-16.6,8.4-24.9c3.3-5.8,6.1-5.8,9.2,0C411.7,322.1,414.4,329.7,416.4,338.4 M417.6,295
		c21.9,6.4,37.2,26.5,37.2,49.2v8.1c0,3.8-3.1,6.9-7,6.9v0l-52.2,0c-1.9,0-3.5,1.5-3.5,3.4c0,2.8,2.5,8.1,3.5,10.9
		c3.2,7.5,10.8,12.7,19.3,12.7c7.9,0,16.4-1.4,24.3-2c0.1,0,0.3,0,0.5,0c3.1,0,5.6,2.4,5.6,5.4c0,2.4-1.6,4.5-3.9,5.2
		c-25.8,8-42.9,10.7-69.9,1c-18-8.5-29.8-26.7-29.8-46.4v-4.5c0-19.7,12-38.1,30-46.3C385.5,291,402.7,291,417.6,295"/>
</g>
<g>
	<path class="st0" d="M325.7,281.7v-12c0-4.7-3.6-10.9-13.1-7.5c-20.2,14.7-41.4,23.4-62.1,24.6c-3.9,0.3-7.1,3.7-7.1,7.7
		c0,4.3,3.5,7.7,7.8,7.7h3.2c4.8,0,8.7,3.8,8.7,8.5v87.3h62.6l0-83.5c0-3,1.6-5.8,4.2-7.3c4.8-2.8,11.9-5.5,11.9-11.9
		c0-4.7-3.9-8.5-8.7-8.5C329.6,286.9,325.7,286.3,325.7,281.7"/>
	<path class="st0" d="M178.6,310.9l-25-3.9c-2.8-0.4-4.9-2.9-4.9-5.8c0-3.2,2.6-5.8,5.9-5.8h55.2c17.3,0,31.3,13.8,31.3,30.8v71.9
		h-52.2V393l-17.4,5.1h-12.2c-17.3,0-31.3-10.8-31.3-34.6s14.1-33.9,31.3-33.9h29.6v-6.9C188.9,316.9,184.4,311.8,178.6,310.9
		 M188.8,379.3c-7.6-2.2-21.7-10.7-21.7-17.1s14-14.9,21.7-17.1V379.3z"/>
	<path class="st0" d="M84.6,398.1L84.6,398.1c17.3,0,31.4-13.8,31.4-30.8c0-4.1-1-8.4-2.6-12.2L85,290.2c-0.4-1-0.7-2.2-0.7-3.4
		c0-4.7,3.9-8.6,8.7-8.6l14.3,0v0c4.8,0,8.7-3.8,8.7-8.5c0-4.7-3.9-8.5-8.7-8.5H51.7c-17.3,0-31.3,13.8-31.3,30.8
		c0,4.1,1,8.4,2.6,12.2l28.5,64.9c0.4,1,0.7,2.3,0.7,3.4c0,4.7-3.9,8.6-8.7,8.6v0L29,381c-4.8,0-8.7,3.9-8.7,8.6
		c0,4.7,3.9,8.6,8.7,8.6L84.6,398.1"/>
	<path class="st0" d="M472.8,283.7c-3.7,1-6.4,4.4-6.4,8.2l0,106.2H529V269.7c0-4.7-3.9-8.5-8.7-8.5c-4,0-7.5,0.7-12.4,5.5
		C500.7,272.9,491.5,278,472.8,283.7"/>
	<polygon class="st0" points="581.9,276.5 581.9,241.7 551.1,259.1 	"/>
	<polygon class="st0" points="587,276.5 617.7,259.1 587,241.7 	"/>
	<polygon class="st0" points="589.6,280.9 620.3,298.3 620.3,263.5 	"/>
	<polygon class="st0" points="587,285.2 587,320 617.7,302.6 	"/>
	<polygon class="st0" points="581.9,285.2 551.1,302.6 581.9,320 	"/>
	<polygon class="st0" points="579.3,280.9 548.6,263.5 548.6,298.3 	"/>
	<path class="st0" d="M564.2,366.8c2.7,0,5.3,0.7,7.7,2c2.5,1.3,4.4,3.3,5.8,5.8c1.4,2.5,2.1,5.1,2.1,7.8s-0.7,5.3-2.1,7.8
		c-1.4,2.5-3.3,4.4-5.8,5.8c-2.5,1.4-5.1,2.1-7.8,2.1c-2.7,0-5.3-0.7-7.8-2.1c-2.5-1.4-4.4-3.3-5.8-5.8c-1.4-2.5-2.1-5.1-2.1-7.8
		s0.7-5.3,2.1-7.8c1.4-2.5,3.3-4.4,5.8-5.8C559,367.5,561.5,366.8,564.2,366.8 M564.2,369.9c-2.1,0-4.2,0.5-6.2,1.6
		c-2,1.1-3.5,2.6-4.7,4.6c-1.1,2-1.7,4.1-1.7,6.3c0,2.2,0.6,4.3,1.7,6.3c1.1,2,2.7,3.5,4.6,4.6c2,1.1,4.1,1.7,6.2,1.7
		c2.2,0,4.3-0.6,6.2-1.7c2-1.1,3.5-2.7,4.6-4.6c1.1-2,1.7-4.1,1.7-6.3c0-2.2-0.6-4.3-1.7-6.3c-1.1-2-2.7-3.6-4.7-4.6
		C568.4,370.4,566.4,369.9,564.2,369.9 M557.1,390.8v-16.6h3.4c3.1,0,4.9,0,5.3,0c1.1,0.1,2,0.3,2.6,0.7c0.6,0.3,1.1,0.9,1.5,1.6
		c0.4,0.7,0.6,1.5,0.6,2.4c0,1.2-0.4,2.2-1.2,3.1c-0.8,0.9-1.9,1.4-3.3,1.6c0.5,0.2,0.9,0.4,1.2,0.6c0.3,0.2,0.7,0.6,1.1,1.3
		c0.1,0.2,0.5,0.8,1.2,2l2,3.3h-4.2l-1.4-2.7c-0.9-1.8-1.7-2.9-2.3-3.4c-0.6-0.5-1.4-0.7-2.3-0.7h-0.9v6.8H557.1z M560.5,381.4h1.4
		c1.9,0,3.1-0.1,3.6-0.2c0.5-0.2,0.8-0.4,1.1-0.8c0.3-0.4,0.4-0.8,0.4-1.3c0-0.5-0.1-0.9-0.4-1.2c-0.3-0.4-0.6-0.6-1.1-0.8
		c-0.5-0.2-1.7-0.2-3.6-0.2h-1.4V381.4z"/>
</g>
</svg>
